<?xml version="1.0" encoding="utf-8"?>
<!-- Generator: Adobe Illustrator 24.0.1, SVG Export Plug-In . SVG Version: 6.00 Build 0)  -->
<svg version="1.1" id="Capa_1" xmlns="http://www.w3.org/2000/svg" xmlns:xlink="http://www.w3.org/1999/xlink" x="0px" y="0px"
	 viewBox="0 0 519 415" style="enable-background:new 0 0 519 415;" xml:space="preserve">
<style type="text/css">
	.st0{fill:#7A914A;}
	.st1{opacity:0.1;fill:#7A914A;enable-background:new    ;}
	.st2{opacity:0.1;}
	.st3{fill:#FFA8A7;}
	.st4{fill:#E6E6E6;}
	.st5{fill:#263238;}
	.st6{fill:#37474F;}
	.st7{fill:#F5F5F5;}
	.st8{opacity:0.5;}
	.st9{fill:#F28F8F;}
	.st10{fill:#455A64;}
	.st11{fill:#9E6767;}
	.st12{fill:#874C4C;}
</style>
<title>2792208</title>
<desc>Created with Sketch.</desc>
<g id="Plants" transform="translate(0.000000, 249.000000)">
	<g id="Plants-2">
		<g id="_Grupo_">
			<g id="_Grupo_2">
				<g id="_Grupo_3">
					<path id="_Trazado_4" class="st0" d="M90.8,80c-1.1-13.4-13-40.5-28.4-56.9S24.1-4.2,9,2.3c-14,6.2-11,25.1,7.6,36.3
						s46.3,24.9,55.7,46.1l18.4,25.4V80z"/>
					<path id="_Trazado_5" class="st1" d="M90.8,80c-1.1-13.4-13-40.5-28.4-56.9S24.1-4.2,9,2.3c-14,6.2-11,25.1,7.6,36.3
						s46.3,24.9,55.7,46.1l18.4,25.4V80z"/>
				</g>
				<g id="_Grupo_4" transform="translate(15.666659, 9.513677)">
					<path id="_Trazado_6" class="st0" d="M77.5,88.8c-0.4,0-0.8-0.3-0.9-0.7C63.9,42.9,23.9,8.6,1.1,2.1C0.6,1.9,0.4,1.4,0.5,0.9
						s0.6-0.8,1.1-0.7c23.3,6.6,64,41.4,76.9,87.3c0.1,0.3,0,0.6-0.2,0.9C78.2,88.6,77.9,88.7,77.5,88.8L77.5,88.8z"/>
				</g>
			</g>
			<g id="_Grupo_5" transform="translate(12.870745, 57.432262)">
				<g id="_Grupo_6">
					<path id="_Trazado_7" class="st0" d="M75.9,70.7c-2.8-7.4-13-19.1-28.7-28.2C29.8,32.4,8.5,28.9,3,20.4
						c-6.6-10.2,1.5-21,18.6-20.2s48.7,21.5,56.3,56L75.9,70.7z"/>
				</g>
				<g id="_Grupo_7" transform="translate(13.979572, 9.513677)">
					<path id="_Trazado_8" class="st0" d="M64.5,53c-0.4,0-0.7-0.2-0.9-0.6C46.4,14.3,15.4,2.9,1.4,2.2C1,2.2,0.7,2,0.6,1.7
						s-0.1-0.7,0-1s0.5-0.5,0.9-0.4C17,1,47.9,12.7,65.4,51.7c0.1,0.2,0.1,0.5,0,0.8c-0.1,0.2-0.3,0.4-0.5,0.5
						C64.8,53,64.7,53,64.5,53L64.5,53z"/>
				</g>
			</g>
		</g>
		<g id="_Grupo_8" transform="translate(429.461992, 5.166670)">
			<g id="_Grupo_9" transform="translate(6.989786, 0.000000)">
				<path id="_Trazado_9" class="st0" d="M0.9,76.6c0.9-11.7,6.3-30.8,19.8-49C35.2,8,52.9-4.2,66,1.5c12.2,5.3,7.6,22.2-13.4,38.9
					C37.8,52.1,22.5,67.3,14.2,85.7L0.9,109.1V76.6z"/>
			</g>
			<g id="_Grupo_10" transform="translate(6.989786, 0.000000)" class="st2">
				<path id="_Trazado_10" class="st0" d="M0.9,76.6c0.9-11.7,6.3-30.8,19.8-49C35.2,8,52.9-4.2,66,1.5c12.2,5.3,7.6,22.2-13.4,38.9
					C37.8,52.1,22.5,67.3,14.2,85.7L0.9,109.1V76.6z"/>
			</g>
			<g id="_Grupo_11" transform="translate(8.098613, 7.148581)">
				<path id="_Trazado_11" class="st0" d="M1,78.3c0.3,0,0.7-0.2,0.8-0.5C13.5,45.4,37.9,12.7,58.5,1.6c0.2-0.1,0.3-0.3,0.4-0.5
					s0-0.4-0.1-0.6c-0.1-0.2-0.3-0.3-0.5-0.4c-0.2-0.1-0.4,0-0.6,0.1c-21,11.2-45.7,44.3-57.6,77c-0.1,0.2-0.1,0.4,0,0.6
					s0.3,0.4,0.5,0.4L1,78.3z"/>
			</g>
			<g id="_Grupo_12" transform="translate(0.000000, 52.265591)">
				<path id="_Trazado_12" class="st0" d="M9.1,64.2c6.8,5.3,14.8,8.8,23.4,10c14.7,2.3,21.2-4.7,21.2-4.7s-5.8-13.8-14.2-17.7
					c0,0,14.2,2.9,25.5,10.5c0,0,9,0.1,12.6-13.6c0,0-5.3-8.3-23.2-12.7c0,0,10.9-2.8,26.6,1.3c1.2,0.5,6.2-17.3,7.7-25.5
					c1.5-8.2-1.8-8.1-8.2-9.8S52.4-0.9,48.4,2.6s-6,15.5-6,15.5s-3.8-6.8-2.9-12.9C35,4,30.3,4.1,25.9,5.6c-7.2,2.5-6.7,6-6.7,11.2
					c0,5.3,0.7,10.5,2.1,15.6c0,0-4.9-4.3-5.1-20.1c0,0-9.7,8.3-13.6,15.4S-0.3,53.5,9.1,64.2z"/>
				<g id="_Grupo_13" transform="translate(8.098613, 5.603147)">
					<path id="_Trazado_13" class="st0" d="M1,59.4c0.3,0,0.6-0.2,0.8-0.5c11.9-24.7,56-53.5,71.8-56.5c0.4-0.1,0.7-0.5,0.7-1
						c-0.1-0.4-0.5-0.7-1-0.6c-16.1,3.1-61,32.3-73,57.4c-0.1,0.2-0.1,0.4,0,0.6s0.2,0.4,0.4,0.5C0.7,59.4,0.9,59.4,1,59.4L1,59.4z"
						/>
				</g>
			</g>
		</g>
	</g>
</g>
<g id="Character_3">
	<g id="_Grupo_14">
		<g id="_Grupo_15">
			<polygon id="_Trazado_14" class="st3" points="234.5,94.9 220.6,142.5 235.8,150.4 247.7,110.7 			"/>
			<path id="_Trazado_15" class="st4" d="M250,76.1c-7.4,0.8-13.8,7.5-16.8,18c-3,10.5-7,26.8-7,26.8s8.1,8.9,19.1,6.2L250,76.1z"/>
			<g id="_Grupo_16" transform="translate(0.000000, 349.932535)">
				<path id="_Trazado_16" class="st5" d="M231,2.3v-2c-0.8,2.3-4.6,12.4-10.3,17.4c-4.5,4-10.6,8.5-12.1,13
					c-1.6,4.5,8.3,6.4,12.4,5.7c4.8-0.8,11-3.4,14.5-7.5c2.4-2.9,4-6.3,5.7-8.6c1.7-2.3,5.7-4.8,6.6-7.4c0.5-1.4,0-4.7-0.7-7.4
					c-0.7-2.7-1.3-5.2-2.1-5c0,0.3,0,1.5,0,1.5c-1,1.1-3.9,2.2-7,2.3C236,4.4,231,3.9,231,2.3z"/>
			</g>
			<g id="_Grupo_17" transform="translate(6.950287, 337.345347)">
				<path id="_Trazado_17" class="st3" d="M209.8,33.8c1.4-1.2,2.8-2.4,4-3.5c3.9-3.5,7-9.5,8.7-13.6c1-2.3,1.5-4.8,1.6-7.4l0.1-8
					L239,0.7l-0.9,14l0,0V15H238c-0.7,2.9-7.2,10.6-11,15.6c-2.5,3.4-7.2,7.6-12.7,8.3C209,39.5,206.3,37.8,209.8,33.8z"/>
			</g>
			<g id="_Grupo_18" transform="translate(80.623334, 348.533959)">
				<path id="_Trazado_18" class="st5" d="M221.9,6.3l-0.5-1.9c-0.1,2.5-1,13.2-5,19.6c-3.2,5.1-7.7,11.2-8,15.9
					c-0.3,4.8,9.7,3.8,13.5,2c4.4-2.1,9.6-6.4,11.8-11.3c1.5-3.5,2-7.2,3.1-9.9s4.1-6.2,4.3-9c0.1-1.6-1.4-4.5-2.8-6.9
					s-2.7-4.7-3.4-4.2c0.1,0.3,0.4,1.5,0.4,1.5c-0.7,1.4-3.1,3.2-6.1,4.2C227.2,6.9,222.3,7.8,221.9,6.3z"/>
			</g>
			<g id="_Grupo_19" transform="translate(84.793507, 337.345347)">
				<path id="_Trazado_19" class="st3" d="M209.3,39.6c1-1.6,2-3.1,2.9-4.5c2.8-4.5,4-11.1,4.6-15.5c0.3-2.5,0.1-5.1-0.6-7.5
					l-2.1-7.7l13.5-3.7l3.5,12.6l0,0l0.1,0.3l0,0c0.1,3-4,12.2-6.2,18.1c-1.4,3.9-4.8,9.3-9.9,11.5
					C210.1,45.3,207.1,44.4,209.3,39.6z"/>
			</g>
			<g id="_Grupo_20" transform="translate(20.850862, 144.053381)">
				<path id="_Trazado_20" class="st6" d="M274.1,5.5c7.8,10,9.2,20.4,7.5,49.6s-2.2,53.8-1.8,55.4s6.7,15.1,9,26
					c2.7,12.7,3.4,59.9,3.4,59.9c-3.5,3.5-8.7,4.9-13.5,3.6c0,0-22.5-76-24.6-82.5c-2.2-6.5-16-76-16-76l2.1-39.2L274.1,5.5z"/>
				<path id="_Trazado_21" class="st6" d="M214.9,39.2c1.2-13.5,4.1-37,4.1-37l34.4-2c5.6,8.7,3.1,23.2,1.6,36.4L235.2,114
					c0.4,3.7,3.8,11.6,0,31.5c-4.2,22.3-10.1,51.6-10.1,51.6s-7.4,3.4-14.8,0.3c0,0-2.8-70.5-1-89.8C211.4,86.7,214,48.4,214.9,39.2
					z"/>
				<path id="_Trazado_22" class="st5" d="M244.1,72l-5.6-28.4c-5-1.8-9.7-4.2-14-7.2c2.8,3.5,6.1,6.6,9.8,9.1L244.1,72z"/>
			</g>
			<path id="_Trazado_23" class="st5" d="M235.8,71.8h27.7c18.7,0,33.9-15.3,33.9-34.1l0,0c0-8.2-3.2-16.1-9-21.9
				c-5.8-5.8-13.6-9.1-21.8-9.1l0,0c-17,0-30.8,13.9-30.8,31V71.8z"/>
			<path id="_Trazado_24" class="st3" d="M292.2,77.1c5.3,0.3,9.3,1.3,12.9,11.8s11.2,51.1,8.7,55.3l-16.9-7.2l-4.2-22.3
				C283.1,106.6,283.6,80.1,292.2,77.1z"/>
			<g id="_Grupo_21" transform="translate(28.907797, 74.412962)">
				<path id="_Trazado_25" class="st7" d="M213,49.9c-0.8,7.9-4,37.1-4,37.1c25.9,13.9,58,4.7,62.9-1c-4.4-14.8-9.2-23.1-12.9-27.1
					l4.7-18.4c0,0-11.6-16.6-0.4-37.8l-13.7-1.1l-20.2-0.6c-4.8,0.3-8.3,0.7-8.3,0.7c-3.1,2.9-8,10.9-11.1,19
					C207.9,26,205.8,34.4,213,49.9z"/>
			</g>
			<g id="_Grupo_22" transform="translate(77.843219, 76.921708)">
				<path id="_Trazado_26" class="st4" d="M214.3,0.2c6.1-0.3,9.7,1.2,14.1,11c4.4,9.8,7.9,33.8,7.9,33.8s-3.7,7.6-22.1,5.4
					l-2.8-16.6C211.5,33.7,203.4,16.4,214.3,0.2z"/>
			</g>
			<path id="_Trazado_27" class="st4" d="M290.3,124.1c-0.2,0.9-6.3,9-9.3,10.9c-3,1.9,5.3,4.5,6.4,9.3c2.3,9.5-4.5,19.8-27.6,20.5
				c-5.5,0.1-5.7,1.3-2.9,3c20.6,3.4,40.2-3,44-7.4c-4.4-14.8-9.2-23.1-12.9-27.1L290.3,124.1z"/>
			<g id="_Grupo_23" transform="translate(31.687912, 19.868478)">
				<path id="_Trazado_28" class="st3" d="M215.1,0.4c-3.3,1.9-7.3,10.2-6.9,27.4c0.3,14.6,5,18.2,7.4,19.3s7,0.4,11.4-0.3v8.8
					c0.3,1.9,1.3,3.5,2.8,4.6c3.6,2.3,7.9,1.4,10.3,0.5c5.3-1.9,6.4-4.5,6.4-4.5L246.3,36c0,0,2.6,2.6,7-1.4c3.7-3.2,4.9-8.6,2-11.5
					c-1.5-1.4-3.6-2-5.6-1.6c-2,0.4-3.7,1.8-4.5,3.6c0,0-2.6,0.2-5.2-4.6c0,0,0.1-13.2-2.8-14.9C227.9,0.1,221.4,0.4,215.1,0.4z"/>
			</g>
			<g id="_Grupo_24" transform="translate(47.261955, 40.847126)">
				<path id="_Trazado_29" class="st5" d="M208.9,2.2c0,1,0.8,1.8,1.8,1.8c1,0,1.8-0.8,1.9-1.8s-0.7-1.8-1.7-1.9
					C209.8,0.4,208.9,1.2,208.9,2.2L208.9,2.2z"/>
			</g>
			<g id="_Grupo_25" transform="translate(43.091782, 56.231468)" class="st8">
				<path id="_Trazado_30" class="st9" d="M212.6,0.1l-4.2,1.4c0.2,0.6,0.5,1.1,1.1,1.4c0.5,0.3,1.1,0.3,1.7,0.2
					C212.3,2.6,212.9,1.4,212.6,0.1L212.6,0.1z"/>
			</g>
			<g id="_Grupo_26" transform="translate(33.361380, 33.565836)">
				<path id="_Trazado_31" class="st5" d="M208.8,3.8l3.7-2.6c-0.3-0.5-0.8-0.9-1.4-1c-0.6-0.1-1.2,0-1.7,0.3
					C208.4,1.3,208.1,2.7,208.8,3.8L208.8,3.8z"/>
			</g>
			<g id="_Grupo_27" transform="translate(50.042070, 34.964413)">
				<path id="_Trazado_32" class="st5" d="M208.6,1.6l4.2,1.6c0.2-0.5,0.3-1.2,0-1.7s-0.7-1-1.2-1.2C210.4-0.1,209.1,0.5,208.6,1.6
					L208.6,1.6z"/>
			</g>
			<g id="_Grupo_28" transform="translate(33.077970, 40.558719)">
				<path id="_Trazado_33" class="st5" d="M208.3,2.1c0,1,0.8,1.8,1.8,1.9c1,0,1.8-0.8,1.9-1.8s-0.7-1.9-1.7-1.9
					c-0.5,0-1,0.2-1.3,0.5C208.5,1.1,208.3,1.6,208.3,2.1L208.3,2.1z"/>
			</g>
			<g id="_Grupo_29" transform="translate(36.141495, 40.847126)" class="st8">
				<polygon id="_Trazado_34" class="st9" points="214.5,0.8 214.2,11.8 208.4,10 				"/>
			</g>
			<g id="_Grupo_30" transform="translate(50.042070, 59.028621)" class="st8">
				<path id="_Trazado_35" class="st9" d="M208.6,7.6c4.7-0.6,14.3-3.4,15.8-7.2c-0.6,1.9-1.8,3.6-3.4,4.9
					c-2.9,2.5-12.4,5.3-12.4,5.3V7.6z"/>
			</g>
			<path id="_Trazado_36" class="st5" d="M271,8.4l0.7-8.1c-1.1-0.1-2.1,0.1-3,0.8s-1.4,1.7-1.5,2.7C267.1,6.2,268.7,8.2,271,8.4
				L271,8.4z"/>
			<path id="_Trazado_37" class="st5" d="M271.5,9.3l6.5-4.8c-0.6-0.9-1.5-1.5-2.6-1.7c-1-0.2-2.1,0-3,0.7
				C270.6,4.8,270.2,7.4,271.5,9.3L271.5,9.3z"/>
			<path id="_Trazado_38" class="st5" d="M276.9,45v7.7l0,0c-1.4,0-2.7-0.5-3.7-1.5c-1-1-1.5-2.3-1.5-3.7v-7.1L276.9,45z"/>
			<path id="_Trazado_39" class="st5" d="M256.1,8.6L256.1,8.6c-6.9,0-13.4,2.7-18.3,7.6c-4.8,4.9-7.6,11.5-7.6,18.4V38h12.6
				c5.9,0,10.9-4.4,11.6-10.2l0,0l0.5,10.2l0,0c4.8,0,8.9-3.7,9.3-8.6l0.2-1.7l0,0c0.5,5.8,5.3,10.2,11,10.3h1.1l1.3-18.4L256.1,8.6
				z"/>
			<path id="_Trazado_compuesto_" class="st10" d="M281,41.5h-14.4c-0.6-2.8-3.1-4.8-5.9-4.8h-0.9c-2.4,0-4.6,1.5-5.6,3.8
				c-0.9-1-2.2-1.5-3.5-1.6c-1.1-0.1-2.2,0.2-3.1,0.9c-1.1-1.9-3.1-3.2-5.3-3.2h-0.9c-3.3,0-6.1,2.7-6.1,6.1s2.7,6.1,6.1,6.1h0.9
				c1.6,0,3.1-0.6,4.3-1.8s1.8-2.7,1.8-4.3c0-0.7-0.1-1.3-0.3-1.9c0.7-0.7,1.7-1,2.6-0.9c1.3,0,2.5,0.6,3.2,1.6l0,0
				c-0.1,0.4-0.1,0.8-0.1,1.2c0,3.4,2.7,6.1,6.1,6.1h0.9c3.3,0,6.1-2.7,6.1-6.1c0-0.1,0-0.2,0-0.2h12.3
				C279.6,42.1,280.2,41.8,281,41.5z M242.1,47.8h-0.9c-2.8,0-5-2.3-5-5.1c0-2.8,2.3-5.1,5-5.1h0.9c2.8,0,5,2.3,5,5.1
				C247.2,45.6,244.9,47.8,242.1,47.8L242.1,47.8z M260.6,47.8h-0.9c-2.8,0-5-2.3-5-5.1c0-2.8,2.3-5.1,5-5.1h0.9c2.8,0,5,2.3,5,5.1
				C265.6,45.6,263.4,47.8,260.6,47.8L260.6,47.8z"/>
		</g>
		<g id="_Grupo_31" transform="translate(2.780115, 126.160293)">
			<path id="_Trazado_40" class="st3" d="M311,18.1c-3.8,4.4-38,36.4-38,36.4l1.2-19.3l19.9-24.2L311,18.1z"/>
			<g id="_Grupo_32">
				<g id="_Grupo_33">
					<g id="_Grupo_34">
						<path id="_Trazado_41" class="st0" d="M244.9,69.2l11.6-8.3c11.1-7.9,24.3-20.3,24.3-34.6c-0.3-10.3-7.9-19-18.1-20.5
							c-9.1-1.2-16.7,7.8-17.8,16.6c-1.1-9-8.7-20.1-17.8-21.3c-4.5-0.8-9.2,0.5-12.7,3.6c-3.5,3-5.4,7.5-5.3,12.1
							c0,14.3,13.2,30.2,24.2,41.1L244.9,69.2z"/>
					</g>
				</g>
			</g>
			<path id="_Trazado_42" class="st3" d="M276.4,40.8c-4.7,2.8-12.6,2.9-18,3.1c-5.4,0.2-12,8.5-7.6,11.8c6.9,4.5,15.9,4,22.2-1.3
				L276.4,40.8z"/>
			<path id="_Trazado_43" class="st3" d="M209.6,21.9c-1.3,1-1.7,4.4-0.9,8c0.8,3.6,3.8,9.2,8.1,10.9c2,0.8,10.5,1,14.6-3.4
				c4.3-4.7,4-12.7-2.3-11.3c-6,1.1-12,1.4-18.1,0.9C210.4,25.3,209.9,23.7,209.6,21.9z"/>
		</g>
	</g>
</g>
<g id="_Grupo_36" transform="translate(122.860267, 362.890785)">
	<g id="_Grupo_37" transform="translate(21.999321, 0.000000)">
		<rect id="_Rectángulo_" x="281.1" y="1" class="st3" width="13.7" height="20.1"/>
	</g>
	<g id="_Grupo_38" transform="translate(0.000000, 11.208982)">
		<path id="_Trazado_44" class="st5" d="M303.1,3.1v-2c-1.3,0.6-4.4,12.3-9.8,17.3c-4.3,4-10.2,8.6-11.7,13
			c-1.5,4.4,8.2,7.2,12.3,6.4c4.7-0.8,12.8-4.2,14.9-7.2c2-3,3-7.7,4.7-9.9c1.7-2.3,5.5-4.8,6.4-7.4c0.5-1.4-0.1-4.6-0.8-7.3
			c-0.6-2.4-1.3-5.1-2.2-4.9v1.5c-1,1.1-3.7,2.2-6.9,2.3C308,5,303.1,4.6,303.1,3.1z"/>
	</g>
</g>
<g id="_Grupo_39" transform="translate(51.823354, 347.187636)">
	<g id="_Grupo_40" transform="translate(32.036255, 0.000000)">
		<polygon id="_Trazado_45" class="st3" points="295.3,21.4 281.6,21.9 282.8,1.6 296.5,1.1 		"/>
	</g>
	<g id="_Grupo_41" transform="translate(0.000000, 15.703149)">
		<path id="_Trazado_46" class="st5" d="M313.9,1.9c-0.7,0-1.3,1-2.8,2.8c-2.3,2.4-5.1,4.4-8.1,5.8c-5.1,2.6-15.1,6.6-19.7,8.6
			c-2.8,1.3-2.7,4.7,0.2,6.7s10,3.4,18.4,1.4c4.6-1,10.6-5.3,14.4-5.1c3.8,0.2,10.9,0.2,13.7-1.8c2.8-1.9,1.7-6.1,0.9-9.7
			c-0.9-3.9-2.1-10-3.4-9.7l-0.1,1.6c-1.7,2.5-10.1,3-13.8,1.2L313.9,1.9z"/>
	</g>
</g>
<g id="_Grupo_42" transform="translate(0.000000, 70.056136)">
	<path id="_Trazado_47" class="st9" d="M381.4,36.3c-6.2,6-42.7,25.2-44.7,24.9c-3-0.4-13.9-11.2-23.3-21.2
		c-1.5-7.6-3.6-17.2-6-22.5c-1.2-3.1-3.1-6-5.4-8.4l0.6-2.6l35.4,33.6c0,0,38.8-29.4,44.6-31.1S387.5,30.3,381.4,36.3z"/>
	<path id="_Trazado_48" class="st3" d="M288.8,2.1c-4.7,1.2-8.4,4.4-7.6,9.6c0.5,3.4,6.1,5.9,9.1,3.3c2.4-2.1,9.6-7.1,12.9-4.5
		c0.7,1.5,1,3.2,0.7,4.9c-0.2,2.7,1.1,4.6,2,4.5c0.8-0.1,2.1-4.4,2.2-6.1c0.2-2.6-1.3-10.3-12.9-11.8l0,0
		C293.1,1.6,290.9,1.6,288.8,2.1z"/>
</g>
<g id="_Grupo_43" transform="translate(157.395514, 125.810246)">
	<path id="_Trazado_49" class="st3" d="M309.8,32.1c-0.3-4.2-7.4-23.2-10.9-31.1l-17.8,8.4l6.8,15.7l18.4,14.3
		C311.2,38.7,310,33.9,309.8,32.1z"/>
</g>
<g id="_Grupo_44" transform="translate(79.680967, 168.134727)">
	<path id="_Trazado_50" class="st6" d="M352.7,1.2c0,13.2,1.7,98.5,1.7,98.5c0.3,3.8,5.1,16.3,5.6,33.9c0.6,19.8,1.1,64.5,1.1,64.5
		s-6.4,6.4-15.5,0c0,0-15-65.2-19.6-90c-2.1-17.1-7.5-66.2-7.5-66.2l-11.1,55.9c1,6.6,1.4,13.2,1.4,19.9c0,9.1-7.9,68.2-7.9,68.2
		s-7.8,4.7-15.2,0.3c0,0-4.5-80-4.6-88.3c-0.2-10.2,7.3-96.6,7.3-96.6L352.7,1.2z"/>
	<path id="_Trazado_51" class="st5" d="M318.6,41.9L317,29.9c0,0-10.3-4.8-13.9-8.2c0,0,6.5,8.6,10.6,11.1l-5,59.1L318.6,41.9z"/>
</g>
<g id="_Grupo_45" transform="translate(66.858272, 75.660627)">
	<path id="_Trazado_52" class="st4" d="M320.9,1.7c-7.1,0-16.7,6.3-24.8,12.6c-8.1,6.3-14.8,11.4-14.8,11.4
		c1.4,7.6,6.2,14.5,11.4,20.2l23-12.5C315.6,33.4,325.7,12.9,320.9,1.7z"/>
	<path id="_Trazado_53" class="st7" d="M344.9,2.4c12.3,3,27.9,8,33.4,19.4s13.9,29.9,13.9,29.9c-5.7,5.6-12.7,9.8-20.4,12.1
		l-6.3-11v40.9c-9.6,10.5-43.2,15.4-64.2,0V26.4c0-10.8,5.9-23.7,22.3-24.6L344.9,2.4z"/>
	<path id="_Trazado_54" class="st4" d="M365.5,52.8c0,0-6.2-10.8-7.5-13.4l7.5,26V52.8z"/>
</g>
<g id="_Grupo_46" transform="translate(80.787078, 0.000000)">
	<g id="_Grupo_47">
		<g id="_Grupo_48" transform="translate(51.823354, 21.016841)">
			<path id="_Trazado_55" class="st5" d="M283.7,2c2.2-0.3,4.5,0.5,6.1,2.1c2.6,2.7,2.1,7.6,0,19l-8,0.9L283.7,2z"/>
		</g>
		<g id="_Grupo_49" transform="translate(0.000000, 16.813473)">
			<path id="_Trazado_56" class="st5" d="M288.7,2.9c-1.7,0-3.4-0.3-5-1c-2.5-1.4-3.1,1.4-1.8,3.9c1.8,3.6,5.3,5.9,9.3,6.2
				c0.1-0.4,2.3-6.3,2.3-6.3L288.7,2.9z"/>
		</g>
		<g id="_Grupo_50" transform="translate(8.357284, 12.610105)">
			<path id="_Trazado_57" class="st3" d="M323.4,32.5c1.2,0.7,2.9-1.6,4.4-3.1c1.5-1.5,6.3-3.7,8.7,1.4c2.4,5.1-3.1,12-6.4,14.3
				c-3.9,2.7-6.7,0.6-6.7,0.6l-0.9,19.8c0,0-4.3,10.5-15.8,12.1c-11.5,1.6-9.2-8.1-5.4-12.8v-7.2c0,0-6,1.2-8.8,0.4
				c-4.1-1.3-7.4-4.6-8.6-8.9c-3.2-10.5-3.8-21.7-1.9-32.5C285-1.4,305.1-1.6,316.4,5.5C327.7,12.6,323.4,32.5,323.4,32.5z"/>
		</g>
		<g id="_Grupo_51" transform="translate(3.072531, 0.000000)">
			<path id="_Trazado_58" class="st5" d="M328.7,47.1c0.6,0,2.9-3.8,4.4-5.2c2.1-1.9-0.6-18.9-0.6-18.9s2.1-6.5-2-10.7
				s-12-3.6-17.7-3.8c-7.1,0-14.1-1.4-20.6-4.2c-8.2-3.6-8.8-4-9.8-0.4c-0.9,3.6-1.4,11.9,3.5,17.4l4.1,1.5c0,0,2.2,2,9.8,2.9
				c7.6,0.9,19.5-0.2,21.1-0.4c2.2-0.3,2.7,1.8,3.9,7.7C325.8,38.3,326.7,47,328.7,47.1z"/>
		</g>
		<g id="_Grupo_52" transform="translate(53.216235, 16.813473)">
			<path id="_Trazado_59" class="st5" d="M282.3,7.5l7.2-3.9c-0.5-1-1.3-1.7-2.3-2.1c-1-0.3-2.2-0.2-3.1,0.3
				C282.1,2.9,281.3,5.4,282.3,7.5z"/>
		</g>
		<g id="_Grupo_53" transform="translate(28.144383, 59.814462)">
			<path id="_Trazado_60" class="st9" d="M281.6,10.4c0,0,10.7-2.2,14.4-4.2c2.2-1.1,4-2.9,5.2-5.1c-0.6,2.2-1.6,4.3-2.9,6.1
				c-2.8,3.5-16.7,6.1-16.7,6.1L281.6,10.4z"/>
		</g>
	</g>
	<g id="_Grupo_54" transform="translate(10.036934, 30.533901)">
		<g id="_Grupo_55" transform="translate(20.893210, 8.406736)">
			<path id="_Trazado_61" class="st5" d="M281.4,3.4c0,0.6,0.2,1.1,0.6,1.6c0.4,0.4,0.9,0.7,1.5,0.7c0.9,0,1.8-0.5,2.1-1.3
				s0.2-1.8-0.4-2.5c-0.6-0.7-1.6-0.9-2.4-0.5S281.4,2.4,281.4,3.4z"/>
		</g>
		<g id="_Grupo_56" transform="translate(23.678971, 0.290799)">
			<path id="_Trazado_62" class="st5" d="M281.3,2.6l4.6,2.5c0.7-1.3,0.2-2.9-1.1-3.7c-0.6-0.3-1.3-0.4-2-0.2S281.6,2,281.3,2.6z"/>
		</g>
		<g id="_Grupo_57" transform="translate(16.427798, 25.220209)">
			<path id="_Trazado_63" class="st9" d="M286,1.2l-4.9,1.8c0.2,0.7,0.7,1.2,1.3,1.5c0.6,0.3,1.3,0.3,2,0.1
				C285.8,4.1,286.5,2.6,286,1.2z"/>
		</g>
		<g id="_Grupo_58">
			<path id="_Trazado_64" class="st5" d="M282.4,5.6l4.2-3.3c-0.4-0.6-1-1-1.7-1.1c-0.7-0.1-1.4,0.1-1.9,0.5
				C281.8,2.7,281.6,4.4,282.4,5.6z"/>
		</g>
		<g id="_Grupo_59" transform="translate(2.785761, 7.296413)">
			<path id="_Trazado_65" class="st5" d="M281.7,3.9c0.1,1.2,1,2.1,2.2,2.1c1.2,0,2.1-1,2.1-2.2c0-1.2-1-2.1-2.1-2.1
				C282.6,1.7,281.7,2.7,281.7,3.9z"/>
		</g>
		<g id="_Grupo_60" transform="translate(6.964403, 7.296413)">
			<polygon id="_Trazado_66" class="st9" points="288.4,1.9 287.7,14.8 281,12.5 			"/>
		</g>
	</g>
</g>
<g id="_Grupo_61" transform="translate(51.823354, 120.496554)">
	<g id="_Grupo_62">
		<g id="_Grupo_63">
			<path id="_Trazado_67" class="st0" d="M310.1,59.2l9.2-4.9c8.8-4.7,19.3-12.7,19.3-24c0-7.9-6.4-16.4-14.3-18.8
				C317,9.2,311,15.3,310.1,22c-0.9-7.3-6.9-17.2-14.2-19.4c-7.9-2.5-14.3,2-14.3,9.9c0,11.3,10.4,25.9,19.2,36L310.1,59.2z"/>
		</g>
	</g>
</g>
<g id="_Grupo_64" transform="translate(82.466728, 144.315640)">
	<path id="_Trazado_68" class="st3" d="M381.3,20.9L362.9,6.6c0,0-37.1,6.1-41.5,6.4c-4.4,0.3-8.2-3-9.9-7.3s-4.3-3.8-4.3-3.8
		c0.7,2.4,0.8,4.9,0.4,7.4c-1.5,1.6-10.1,3.3-15.9,1.3c-5.8-2-14.2,0.9-9,8.8s15.3,8.9,22.3,8.9c2.9,0,5.9-0.2,8.8-0.6
		c2.3-0.3,4.5-0.5,6.8-0.7C335.1,26,374.8,23,381.3,20.9z"/>
</g>
<path id="_Trazado_69" class="st11" d="M133.5,78.3c12.7-2.3,13.3-0.6,53.3,21.8c0,0,47.2-19.1,52.8-22.4c5.6-3.2,13.6-5.4,19.6-1.7
	c-1.4,0-2.9,0.3-4.3,0.7c-0.7,0.3-3,1.5-2.7,2.6c0.1,0.4,0.7,0.6,1.1,0.6c1,0.1,2,0,2.9-0.1c1.1-0.2,2.4-0.5,3.2,0.3
	c0.6,0.8,0.5,1.8-0.1,2.5c-0.6,0.7-1.4,1.2-2.3,1.6l-4.2,1.9c-1,0.4-2,1-2.9,1.6c-0.8,0.6-1.5,1.4-2.4,2c-2.7,1.8-5.8,0.9-8.6,2.1
	c-0.5,0.2-1,0.4-1.4,0.7c-2.1,1-4,2.1-6,3.3c-5.7,3.4-11.3,7-16.9,10.5c-5.6,3.6-10.9,7-16.5,10.2c-2,1.3-4.3,2.4-6.6,3.1
	c-7,1.7-47.2-15.8-47.2-15.8L133.5,78.3z"/>
<g id="_Grupo_68" transform="translate(16.781955, 0.000000)">
	<path id="_Rectángulo_2" class="st0" d="M101,10.2h9.5c14.6,0,26.4,11.9,26.4,26.5v4.4c0,14.5-11.7,26.3-26.3,26.3h-9.8
		c-7,0-13.7-2.8-18.7-7.7s-7.7-11.6-7.7-18.6v-4.4c0-7,2.8-13.8,7.8-18.7C87.2,12.9,93.9,10.2,101,10.2L101,10.2z"/>
</g>
<g id="_Grupo_69" transform="translate(12.295113, 367.740251)">
	<path id="_Trazado_70" class="st5" d="M91.5,12.3v-2c0.8,2.4,4.5,12.5,10,17.6c4.4,4,10.5,8.7,12,13.2s-8.4,6.3-12.6,5.6
		c-4.8-0.9-11-3.6-14.4-7.7c-2.4-2.9-3.9-6.4-5.6-8.7c-1.7-2.3-5.6-4.9-6.5-7.5c-0.5-1.4,0.1-4.7,0.8-7.4c0.6-2.5,1.4-5.2,2.2-5v1.5
		c1,1.1,3.8,2.3,7,2.4C86.6,14.3,91.6,13.8,91.5,12.3z"/>
</g>
<g id="_Grupo_70" transform="translate(15.383459, 356.554236)">
	<path id="_Trazado_71" class="st11" d="M102.5,42.6c-1.4-1.2-2.8-2.4-4-3.6c-3.9-3.6-6.9-9.6-8.6-13.7c-1-2.3-1.5-4.9-1.5-7.4v-8
		H74.4v13l0,0v0.3h0.1C75.2,26.2,81.6,34,85.3,39c2.4,3.4,7.1,7.7,12.7,8.5C103.3,48.2,106,46.6,102.5,42.6z"/>
</g>
<g id="_Grupo_71" transform="translate(67.127820, 353.757732)">
	<path id="_Trazado_72" class="st5" d="M91.5,12.4v-2c0.8,2.4,4.5,12.6,10,17.6c4.4,4,10.5,8.7,12,13.2c1.5,4.5-8.4,6.3-12.6,5.5
		c-4.8-0.9-11-3.6-14.4-7.7c-2.4-2.9-3.9-6.4-5.6-8.7c-1.7-2.3-5.6-4.9-6.5-7.5c-0.5-1.4,0.1-4.7,0.8-7.4c0.7-2.5,1.4-5.2,2.2-5v1.5
		c1,1.1,3.8,2.3,7,2.4C86.6,14.3,91.6,13.9,91.5,12.4z"/>
</g>
<g id="_Grupo_72" transform="translate(69.924812, 342.571717)">
	<path id="_Trazado_73" class="st11" d="M102.8,42.7c-1.4-1.2-2.8-2.4-4-3.6c-3.9-3.6-6.9-9.6-8.6-13.7c-1-2.3-1.5-4.9-1.5-7.4v-8
		h-14v13l0,0v0.3l0,0c0.7,2.9,7.1,10.7,10.8,15.8c2.5,3.4,7.1,7.7,12.7,8.5C103.5,48.4,106.2,46.7,102.8,42.7z"/>
</g>
<g id="_Grupo_73" transform="translate(11.187970, 148.214702)">
	<path id="_Trazado_74" class="st6" d="M81.4,13.4C70.5,37.2,81.8,121,81.8,121c-0.3,3.9-4.7,11.5-6.4,28.5c-1.9,20.1,3,70.5,3,70.5
		c4.3,2.5,9.7,2.7,14.2,0.6c0,0,13.4-75.9,15.9-95.9c2.2-17.4,6.4-55.7,6.4-55.7l12,55.6c-1.8,5.6-3,11.4-3.8,17.2
		c-1.1,11.7,10.2,66.4,10.2,66.4s4.9,1.8,14,0.4c0,0,4-72.6,5.1-86.7C154.3,98.1,148,24,143.6,10L81.4,13.4z"/>
</g>
<g id="_Grupo_74" transform="translate(51.744361, 175.890184)">
	<path id="_Trazado_75" class="st5" d="M74.4,41.2L78,19.1c0,0,15-3.1,21.7-9.5c0,0-7.1,8.9-17.7,11.8l-4,17l7,51.5L74.4,41.2z"/>
</g>
<g id="_Grupo_75" transform="translate(16.781955, 68.514343)">
	<path id="_Trazado_76" class="st7" d="M95,10.5L95,10.5c-14,1-14.9,7.7-18.4,15.1c-2.6,5.7-2.8,12.1-0.7,18l9.8,28.2
		c0,0-4.5,11-9.8,21.4c24.4,13.6,54.9,6.5,62.3-3.5c0.3-2.1-1.6-18.6-2.8-29.4c4.3-10.8,5.4-17.6,3.6-24.8
		c-3.4-13.2-16.4-26.1-22.2-25.7L95,10.5z"/>
</g>
<path id="_Trazado_77" class="st4" d="M103.4,159.4c0,0,2.9-11.5,3.9-14c0.7-2.1,2.7-3.5,4.9-3.3l0,0c-3.2-2.1-5.4-5.4-6.1-9.1
	l-3-14.9c0,0,5.5-17.5,5-23.5l-14,0.8l-1.8,1.3c-1.5,5-1.3,10.3,0.4,15.2l9.8,28.2c0,0-4.5,11-9.8,21.4c18,10,39.3,8.8,52.2,3.5
	L103.4,159.4z"/>
<g id="_Grupo_76" transform="translate(0.000000, 69.912595)">
	<path id="_Trazado_78" class="st11" d="M74.8,81.4c0.1-1.1,4.9-30.8,8.7-50.7c2.6-13.5,7.9-18.4,18.5-20l3.7-0.6
		c5,16.4,1.6,23.8-5,35.1l-6.2,30l-15,15.2C74.3,89.2,74.7,82.9,74.8,81.4z"/>
</g>
<g id="_Grupo_77" transform="translate(26.571429, 12.584267)">
	<path id="_Trazado_79" class="st11" d="M116.9,10.2c3.3,2,7.4,10.2,7,27.7c-0.3,14.8-5.1,18.4-7.5,19.4c-2.4,1-7,0.4-11.5-0.3v8.9
		c0,0,6.2,7.2,5.8,11.3s-9,5-14.8,1c-3.8-2.7-7-6.1-9.6-10V46.8c0,0-3,4.1-8,0.8c-5-3.3-5.2-11.5-2.3-14.4c2.9-2.9,9.1-2,10.3,2.1
		c0,0,7.2,0.3,16.8-5C110.7,26.1,115.8,18.7,116.9,10.2L116.9,10.2z"/>
</g>
<g id="_Grupo_78" transform="translate(55.939850, 34.956298)">
	<path id="_Trazado_80" class="st5" d="M78.1,11.8c0,1-0.8,1.9-1.8,1.9c-1,0-1.9-0.8-1.9-1.8s0.7-1.9,1.8-1.9c0.5,0,1,0.2,1.4,0.5
		C77.9,10.8,78.1,11.3,78.1,11.8z"/>
</g>
<g id="_Grupo_79" transform="translate(60.135338, 48.938817)">
	<path id="_Trazado_81" class="st12" d="M74.4,10.3l4.3,1.4c-0.2,0.6-0.5,1.1-1.1,1.4c-0.5,0.3-1.2,0.4-1.7,0.2
		C74.7,12.9,74,11.5,74.4,10.3L74.4,10.3z"/>
</g>
<g id="_Grupo_80" transform="translate(71.323308, 27.965038)">
	<path id="_Trazado_82" class="st5" d="M77.9,13.1l-3.8-2.6c0.3-0.5,0.8-0.9,1.4-1c0.6-0.1,1.2,0,1.7,0.3
		C78.3,10.6,78.6,12,77.9,13.1z"/>
</g>
<g id="_Grupo_81" transform="translate(69.924812, 33.558046)">
	<path id="_Trazado_83" class="st5" d="M78.4,11.8c0,1-0.8,1.9-1.8,1.9c-1,0-1.9-0.8-1.9-1.8s0.7-1.9,1.8-1.9c0.5,0,1,0.2,1.4,0.5
		C78.2,10.9,78.4,11.3,78.4,11.8z"/>
</g>
<g id="_Grupo_82" transform="translate(65.437970, 34.956298)">
	<polygon id="_Trazado_84" class="st12" points="74.2,9.4 74.5,20.6 80.3,18.7 	"/>
</g>
<g id="_Grupo_83" transform="translate(40.556391, 52.844016)">
	<path id="_Trazado_85" class="st12" d="M90.9,16.7c-4.7-0.6-14.5-3.4-16-7.3c0.6,2,1.8,3.7,3.4,4.9c2.9,2.5,12.6,5.3,12.6,5.3
		L90.9,16.7z"/>
</g>
<g id="_Grupo_84" transform="translate(75.518797, 114.367100)">
	<g id="_Grupo_85">
		<g id="_Grupo_86">
			<path id="_Trazado_86" class="st0" d="M101.8,63l-8.9-4.7c-8.5-4.5-18.6-12.2-18.6-23.1c0-7.6,6.2-15.7,13.8-18.1
				c7-2.2,12.8,3.7,13.7,10.2c0.9-7,6.7-16.5,13.7-18.7c7.6-2.3,13.8,1.9,13.8,9.5c0,10.9-10.1,24.8-18.6,34.6L101.8,63z"/>
		</g>
	</g>
</g>
<g id="_Grupo_87" transform="translate(5.302632, 136.739130)">
	<path id="_Trazado_87" class="st11" d="M74.2,23.4l15-15.2c0,0,37.9,8.4,42.2,8.8c4.3,0.4,7.7-3.5,10.7-6.9c0.7-0.9,1.8-1.4,3-1.4
		c-0.4,1.4-0.6,2.8-0.4,4.2c0.6,1.8,10.1,3.7,15.8,1.8c5.7-1.9,14,0.9,8.8,8.6s-15,8.6-21.9,8.7c-2.9,0-5.8-0.2-8.6-0.6
		c-2.2-0.3-4.4-0.5-6.7-0.7C118,29.6,80.6,25.4,74.2,23.4z"/>
</g>
<path id="_Trazado_88" class="st0" d="M95.2,13.5c6.1,2.6,4.7,7.8,2.2,13.9S92,38.1,85.9,35.6c-6.1-2.5-9-9.6-6.4-15.6
	C82.1,13.8,89.1,10.9,95.2,13.5z"/>
<path id="_Trazado_89" class="st0" d="M100.5,18.9l2.1-10.2c-1.3-0.4-2.8-0.1-3.9,0.6c-1.2,0.7-2,1.9-2.3,3.2
	C95.9,15.5,97.7,18.3,100.5,18.9L100.5,18.9z"/>
</svg>
