<?xml version="1.0" encoding="utf-8"?>
<!-- Generator: Adobe Illustrator 24.0.1, SVG Export Plug-In . SVG Version: 6.00 Build 0)  -->
<svg version="1.1" id="Layer_1" xmlns="http://www.w3.org/2000/svg" xmlns:xlink="http://www.w3.org/1999/xlink" x="0px" y="0px"
	 viewBox="0 0 1640.77 437.83" style="enable-background:new 0 0 1640.77 437.83;" xml:space="preserve">
<style type="text/css">
	.st0{opacity:0.5;fill-rule:evenodd;clip-rule:evenodd;fill:#C2DBC4;}
	.st1{fill-rule:evenodd;clip-rule:evenodd;fill:#4C3C2D;}
	.st2{fill-rule:evenodd;clip-rule:evenodd;fill:#7A924A;}
	.st3{fill-rule:evenodd;clip-rule:evenodd;fill:#7A924B;}
	.st4{fill-rule:evenodd;clip-rule:evenodd;fill:#BFD364;}
	.st5{fill-rule:evenodd;clip-rule:evenodd;fill:#637B4B;}
	.st6{fill-rule:evenodd;clip-rule:evenodd;fill:#637B4C;}
	.st7{fill-rule:evenodd;clip-rule:evenodd;fill:#BFD365;}
	.st8{fill:#4C3C2D;}
</style>
<g>
	<path class="st1" d="M1484.65,241.11c-4.06,2.25-8.16,2.46-12.81,1.66c-10.84-1.87-17.34,1.54-22.81,11.43
		c-2.53,4.57-5.5,7.86-10.82,9.56c-7.11,2.27-12.61,7.68-17.13,13.25c-6.05,7.44-13.88,11.25-23.97,14.83
		c10.65,2.27,19.98,6.23,29.14,5.87c33.58-1.34,65.1,8.8,97.27,15.48c3.35,0.7,6.63,1.71,9.98,2.39c2.7,0.55,4.21,1.94,4.39,4.75
		c0.16,2.53-0.19,5.25-2.57,6.18c-8.22,3.23-10.5,10.79-12.96,17.85c-1.88,5.38-5.05,7.95-10.29,9.4
		c-11.76,3.23-23.79,5.51-35.83,5.88c-45.7,1.41-91.38,3.88-137.13,3.51c-12.44-0.1-24.76-1.41-37.06-3.17
		c-3.41-0.49-5.74-1.79-7.7-4.69c-5.52-8.15-9.04-17.68-18.35-23.2c-3.97-2.36-4.25-7.1,1.73-9.45
		c15.93-6.26,32.22-11.45,48.99-14.81c15.16-3.04,21.17-8.98,22.79-24.3c1.24-11.72,2.97-13.5,14.71-13.77
		c10.17-0.23,20.36-0.05,32.52-0.05c-5.43-5.27-12.64-6.71-12.11-14.22c0.42-5.93,0.52-11.69-1.29-17.71
		c-1.38-4.58-3.02-7.07-7.45-8.92c-11.99-5.03-24.34-8.08-37.31-8.75c3.25-3.58,5.58-7.74,7.59-12.1c2.78,0.34,5.44-0.48,3.87-3.62
		c-7.5-14.94,1.09-25.58,9.19-36.43c5.53-2.11,11.44-1.61,17.16-2.46c-5.55,8.82-4.36,14.74,4.53,21.8
		c4.69,3.73,6.03-1.29,8.48-3.37c2.48,0.51,4.5,1.52,4.8,4.4c-4.4,4.23-6.24,7.8-1.29,13.84c3.24,3.96,6.34,7,10.77,9.33
		c10.21,5.38,20.45,10.8,30.2,16.94c4.33,2.72,7.3,3.1,10.6-0.73C1457.31,233.8,1470.96,237.52,1484.65,241.11z"/>
	<path class="st2" d="M527.95,212.37c21.89,0.04,42.21-2.04,62.11,4.27c32.9,10.43,51.65,35.72,50.51,68.95
		c-1.12,32.7-22.94,58.72-55.4,66.4c-16.13,3.82-32.47,4.12-48.79,2.76c-17.17-1.43-34.29-1.19-51.46-0.83
		c-2.29,0.05-5.05,1-6.3-1.78c-1.24-2.76,0.43-5.08,2.14-7.16c2.49-3.04,6.01-4.36,9.63-5c6.61-1.17,9.62-5.62,10.07-11.52
		c2.28-30.3,2.64-60.63,0.74-90.99c-0.43-6.84-4.01-9.49-10.03-11.16c-4.5-1.24-11.63-1.62-10.59-8.26
		c1.01-6.42,7.94-5.03,12.59-4.91C505.34,213.48,517.46,212.99,527.95,212.37z M539.17,278.13c-0.36,15.27,0.05,30.04,1.5,44.76
		c1.5,15.24,14.28,22.98,28.38,17.43c13-5.12,22.23-14.05,26.43-27.52c5.56-17.81,5.98-35.83,0.33-53.68
		c-6.29-19.86-27.04-35.32-44.7-34.04c-6.93,0.5-10.44,3.57-10.74,10.83C539.81,250.14,538.63,264.35,539.17,278.13z"/>
	<path class="st2" d="M367.19,212.38c15.53,0.56,31.12-1.64,46.6,1.61c25.17,5.28,37.91,29.69,26.96,51.75
		c-3.09,6.22-7.66,10.67-14.02,13.28c-3.42,1.4-5.54,3.59-3.58,7.25c9.96,18.59,19.39,37.63,36.66,50.93
		c2.87,2.21,6.42,3.57,9.68,5.27c2.79,1.46,6.16,2.53,5.79,6.57c-0.38,4.1-3.49,5.89-7.02,6.41c-22.2,3.22-42.01-1.08-57.21-18.97
		c-8.59-10.11-14.87-21.77-21.84-32.97c-1.8-2.89-3.91-5.62-6.17-8.16c-1.41-1.58-3.51-2.6-5.74-1.8c-2.76,0.99-1.67,3.58-1.68,5.47
		c-0.06,8.72,0.1,17.44,0.16,26.15c0.05,7.36,3.03,12.64,10.33,15.06c2.24,0.74,4.45,1.68,6.5,2.84c2.86,1.62,8.36,1.5,8.05,5.11
		c-0.38,4.43-5.95,4.38-9.59,5.29c-3,0.75-6.28,0.62-9.42,0.53c-16.38-0.5-32.75-0.64-49.13,0.05c-3.13,0.13-6.32-0.1-9.42-0.59
		c-2.14-0.34-3.97-1.85-4.45-4.06c-0.59-2.73,1.32-4.37,3.34-5.77c0.43-0.3,0.88-0.72,1.36-0.78c15.16-2.03,15.68-13.2,15.5-24.79
		c-0.42-26.4,1.25-52.82-1.19-79.21c-0.62-6.65-2.94-10.97-9.68-12.55c-2-0.47-4.02-1.39-5.72-2.56c-4.64-3.21-4.29-7.23,0.82-9.54
		c3.16-1.43,6.61-1.66,10.09-1.52C344.49,213.13,355.84,213.69,367.19,212.38z M375.27,251.9c0.07,0,0.13,0,0.2,0
		c0,5.54-0.02,11.09,0,16.63c0.04,10.31,5.71,14.25,15.73,10.98c12.18-3.98,18.28-14.09,16.72-27.72
		c-1.69-14.81-11.42-25.56-24.08-26.21c-5.34-0.27-9.16,1.41-8.67,8.11C375.63,239.73,375.27,245.82,375.27,251.9z"/>
	<path class="st2" d="M1073.18,259.89c0,8.86-0.2,17.73,0.05,26.59c0.35,12.66-0.36,25.35,1.33,37.99
		c1.18,8.82,5.22,14.73,13.97,17.09c0.75,0.2,1.5,0.53,2.18,0.91c3.86,2.18,11.22,1.88,10.36,7.52c-0.71,4.63-7.5,4.03-11.78,4.01
		c-16.1-0.09-32.19-0.79-48.29,0.1c-3.32,0.18-7.56-0.39-7.99-4.77c-0.39-4.06,3.06-6.12,6.53-6.79
		c13.59-2.61,16.1-12.16,16.42-24.06c0.59-22.44,1.78-44.87,2.83-67.3c0.63-13.6-5.06-21.97-18.01-26.15
		c-2-0.64-4.07-1.24-5.88-2.27c-2.61-1.48-4.88-3.62-4.23-6.95c0.72-3.71,3.97-3.85,6.9-3.77c13.47,0.38,26.94,0.89,40.41,1.32
		c4.56,0.14,7.68,2.38,10.64,5.83c21.88,25.47,45,49.79,68.94,73.33c1.62,1.59,3.07,4.49,5.67,3.6c3.15-1.08,2.14-4.5,2.15-6.95
		c0.07-14.54,0.22-29.08-0.19-43.6c-0.35-12.45-2.96-15.32-14.92-19c-1.51-0.46-3.05-0.91-4.46-1.6c-2.9-1.42-6.03-3.19-5.42-6.9
		c0.54-3.24,3.74-4.57,6.69-4.64c17.68-0.42,35.37-0.64,53.06-0.83c1.25-0.01,2.5,0.78,3.76,1.16c2.07,0.62,4.29,1.3,4.5,3.81
		c0.22,2.69-2.24,3.33-4.11,4.13c-5.07,2.19-10.22,4.18-15.29,6.36c-4.6,1.98-6.32,5.36-6.53,10.56
		c-1.28,31.94-2.98,63.87-1.38,95.86c0.15,2.9,0.16,5.82,0.01,8.72c-0.28,5.25,0.26,11.66-5.04,14.17
		c-5.82,2.76-11.69-0.81-15.68-4.99c-10.38-10.89-20.08-22.43-30.2-33.58c-18.08-19.92-36.27-39.75-54.41-59.62
		C1074.91,259.4,1074.04,259.64,1073.18,259.89z"/>
	<path class="st3" d="M212.2,311.88c-3.96,0.01-7.97,0.38-11.88-0.07c-8.88-1.03-12.15,3.85-13.62,11.57
		c-2.15,11.26-1.36,13.44,7.72,17.73c1.43,0.67,2.95,1.19,4.28,2.01c1.79,1.1,3.81,2.27,3.75,4.72c-0.06,2.78-2.25,4.25-4.47,4.99
		c-2.18,0.73-4.63,0.88-6.96,0.88c-12.15-0.03-24.3-0.51-36.42,0.93c-2.08,0.25-4.26,0.25-6.31-0.11c-3.12-0.55-6.75-1.23-7.35-4.97
		c-0.62-3.8,2.58-5.95,5.52-6.81c13.74-3.98,19.85-14.61,24.71-26.76c11.85-29.57,24.67-58.77,34.19-89.22
		c0.8-2.55,2.42-3.96,4.41-5.29c4.39-2.94,8.8-5.84,13.15-8.83c8.62-5.9,11.2-5.26,14.98,4.76c12.84,34.02,26.59,67.67,40.48,101.28
		c4.82,11.66,11.08,20.62,23.77,24.33c3.74,1.09,9.96,2.55,9.44,7.03c-0.65,5.62-7.43,4.08-11.32,4.32
		c-8.65,0.54-17.39-0.51-26.1-0.64c-11.62-0.18-23.23-0.4-34.83,0.93c-4.13,0.47-9.41,0.69-11.07-3.95
		c-1.82-5.1,3.07-7.39,6.79-9.21c6.73-3.29,8.25-7.9,5.73-14.9c-5.18-14.36-4.98-14.44-19.88-14.71
		C218.02,311.82,215.11,311.87,212.2,311.88z M212.76,295.6c3.43,0,6.86-0.02,10.29,0.01c4.05,0.03,6.05-1.38,4.38-5.76
		c-4.23-11.06-8.36-22.15-12.66-33.18c-0.5-1.27-0.92-3.63-2.9-2.98c-1.15,0.38-2.08,2.2-2.6,3.57c-2.83,7.37-5.6,14.77-8.22,22.22
		C193.85,299.93,195.61,295.57,212.76,295.6z"/>
	<path class="st3" d="M894.99,353.26c-6.85,0.44-13.69,0.9-20.54,1.32c-3.95,0.24-7.94,0.7-11.73-0.95
		c-4.65-2.03-5.19-5.81-1.35-9.18c0.59-0.52,1.24-1.13,1.96-1.32c16.24-4.23,22-17.6,27.39-31.31
		c10.12-25.74,21.65-51.04,29.85-77.38c4.33-13.9,15.35-17.68,24.71-24.45c4.27-3.09,7.69,0.25,9.44,4.97
		c4.2,11.36,8.42,22.72,12.98,33.93c9.63,23.67,19.85,47.1,29.07,70.92c4.29,11.08,10.48,19.09,22.11,22.8
		c4.26,1.36,11.44,2.94,10.6,7.64c-0.97,5.41-8.52,4.12-13.1,4.28c-10.26,0.36-20.57-0.6-30.86-0.91
		c-10.04-0.31-20.05,0.29-30.07,1.03c-3.83,0.28-8.84,0.01-9.81-4.69c-0.84-4.05,3-6.5,6.42-8.04c6.16-2.77,8.98-6.84,7.06-13.8
		c-3.72-13.5-5.61-15.87-14.87-16.08c-9.5-0.22-19.03,0.18-28.52-0.17c-7.85-0.29-9.5,4.6-10.79,10.8
		c-1.38,6.61-3.68,13.12,4.41,17.13c1.88,0.94,3.83,1.75,5.74,2.63c2.71,1.25,5.64,2.64,4.7,6.26c-0.79,3.06-3.48,4.77-6.55,4.89
		c-6.07,0.23-12.15,0.07-18.22,0.07C895,353.53,895,353.39,894.99,353.26z M930.02,251.19c-6.68,14.16-10.89,27.05-15.05,39.95
		c-1.13,3.5,1.02,4.84,4.19,4.79c7.61-0.11,15.23-0.24,22.84-0.5c2.52-0.08,4.77-0.52,3.57-4.22
		C941.4,278.29,936.54,265.66,930.02,251.19z"/>
	<path class="st4" d="M1376.38,165.5c-5.71,0.85-11.62,0.35-17.16,2.46c-23.38,1.85-46.76,3.65-70.14,5.58
		c-10.06,0.83-20.08,0.62-29.81-2.08c-9.41-2.61-11.99-8.85-7.66-17.55c4.43-8.89,12.15-14.45,20.48-19.21
		c17.21-9.82,36.1-14.43,55.47-17.46c1.5-0.23,3.23,0.23,4.27-1.4c24.99-1.04,50.03-0.99,74.98-3.14
		c5.54,2.44,11.42,1.17,17.15,1.57c2.4,1.82,5.16,1.46,7.88,1.31c1.5,0.45,2.99,0.9,4.49,1.36c0.06,5.81,4.18,9.01,8.28,11.78
		c4.56,3.08,9.61,5.42,14.45,8.09c-3.81,8.74-11.75,12.24-19.87,15.28C1418.94,159.66,1397.58,162.25,1376.38,165.5z"/>
	<path class="st4" d="M1484.65,241.11c-13.69-3.59-27.34-7.31-40.2-13.41c-2.47-1.93-5.01-3.78-7.4-5.81
		c-10.83-9.21-12.22-15.39-6.43-28.05c15.58-6.57,32.09-6.55,48.55-6.84c18.49,0.48,37,0.51,55.45,1.55
		c26.1,1.47,49.6,9.76,68.42,28.82c4.51,4.56,8.05,9.74,10.02,15.94c4.03,12.69-1.42,19.5-14.98,18.09
		c-11.81-1.23-23.58-2.84-35.34-4.44c-11.78-1.61-23.59-3.08-35.49-2.76C1512.93,244.57,1498.83,242.34,1484.65,241.11z"/>
	<path class="st2" d="M802.21,209.29c12.37-0.73,24.04,2.71,35.6,6.32c8.95,2.8,9.52,4.78,7.42,13.89
		c-1.83,7.95-2.91,16.06-4.62,24.04c-0.85,3.99-1.15,10.43-5.2,10.44c-4.57,0-4.02-6.44-4.67-10.34
		c-1.64-9.74-6.06-17.88-13.07-24.71c-3.64-3.55-7.82-6.16-12.81-7.48c-8.05-2.13-15.31,0.32-20.21,7.02
		c-4.51,6.16-4.53,13.8,0.08,20.65c4.44,6.6,11.19,10.31,17.96,13.88c11.21,5.91,22.54,11.67,31.78,20.56
		c21.57,20.73,17.59,51.36-8.87,65.27c-22.9,12.03-46.66,11.16-70.45,2.5c-2.94-1.07-5.81-2.78-6.99-6.04
		c-4.39-12.1-6.79-24.38-2.44-37.02c0.72-2.09,1.3-5.06,4.31-4.97c2.38,0.07,3.29,2.5,4.13,4.36c3.6,7.95,7.4,15.83,13.15,22.46
		c8.03,9.26,17.31,16.58,30.66,14.36c14.62-2.43,20.09-17.3,10.69-28.78c-4.77-5.82-11.21-9.52-17.69-13.13
		c-9.92-5.52-19.87-11.01-28.39-18.64c-23.76-21.27-19.02-54.5,9.75-68.41C781.78,210.96,791.71,208.73,802.21,209.29z"/>
	<path class="st3" d="M94.57,304.08c0-20.33,0.03-40.67-0.01-61c-0.03-12.57-1.84-14.68-13.91-18.25c-3.61-1.07-8.7-1.92-8.04-7.09
		c0.63-4.93,5.61-5.36,9.43-5.14c23.71,1.4,47.5-1,71.18,1.36c1.82,0.18,3.68,0.38,5.4,0.95c1.33,0.44,3.61,0.53,3.21,2.65
		c-0.18,0.97-1.7,2.04-2.83,2.43c-4.97,1.72-9.96,3.41-15.04,4.72c-7.84,2.03-11.18,6.9-11.1,14.95c0.3,30.37-0.77,60.73-1.49,91.09
		c-0.75,31.48-25.98,62.58-56.87,68.45c-6.95,1.32-14.26,1.4-20.68-2.87c-5.53-3.68-7.09-8.34-3.11-14.08
		c1.8-2.6,3.91-4.98,5.84-7.49c4.73-6.11,10.26-6.85,16.56-2.5c2.6,1.8,5.15,3.69,7.82,5.37c7.87,4.95,13,2.46,13.58-7.02
		c0.57-9.22,0.55-18.48,0.61-27.72c0.09-12.94,0.02-25.88,0.02-38.82C94.96,304.08,94.77,304.08,94.57,304.08z"/>
	<path class="st5" d="M1459.06,136.8c-4.84-2.66-9.89-5.01-14.45-8.09c-4.11-2.77-8.23-5.96-8.28-11.78
		c2.62-6.26,8.68-6.84,16.39-9.08c-9.64,0.08-16.49-4.78-24.19-1.81c-1.85,0.05-3.64,0.26-4.82,1.96
		c-5.64,1.56-11.27,3.13-16.91,4.69c-24.95,2.15-49.99,2.1-74.98,3.14c-0.52-0.02-1.12,0.11-1.56-0.09
		c-3.87-1.74-9.56-1.75-10.45-6.76c-0.9-5.02,3.74-7.76,7.43-10.16c16.49-10.75,35.21-14.3,54.32-16.44
		c13.32,0.52,26.86-0.11,39.82,3.14c14.65,3.67,28.22-1.66,42.27-2.98c6.89,2.12,13.86,4,20.63,6.44c5.43,1.96,10.6,4.66,14.97,8.57
		c2.13,1.9,4.77,3.89,3.95,7.2c-0.9,3.61-4.42,3.07-7.14,3.65c-4.82-1.24-9.59-0.4-14.41,0.13c4.83-0.44,8.95,3.28,13.77,2.33
		c19.51,4.16,29.95,16.18,28.48,32.79c-0.71,7.99-3.11,9.82-10.8,7.77C1495.06,146.61,1477.07,141.68,1459.06,136.8z"/>
	<path class="st2" d="M688.14,353.69c-12.67,0-25.34,0.05-38.01-0.04c-3.18-0.02-7.27-0.4-7.64-4c-0.33-3.23,3.86-3.89,6.44-4.93
		c18.33-7.35,18.44-7.31,18.52-26.71c0.1-25.91,0.11-51.81,0-77.72c-0.05-11.62-1.81-13.72-12.68-16.65
		c-1.02-0.27-2.2-0.17-3.08-0.66c-3.24-1.8-9.35-1.28-8.93-6.04c0.34-3.86,6.08-4.08,9.38-4.12c22.71-0.33,45.43-0.14,68.14-0.11
		c0.51,0,1.07,0.13,1.54,0.35c3.13,1.47,8.71,0.31,8.75,5c0.03,4.07-5.16,3.83-8.23,4.71c-14.75,4.24-14.89,4.49-15.67,19.98
		c-1.41,28.01-1.79,56.01-0.14,84.01c0.63,10.64,2.69,12.68,13.07,15.88c4.54,1.4,12.72,1.52,11.99,6.52
		c-0.87,5.98-8.88,4.47-14.12,4.61c-9.77,0.25-19.56,0.07-29.34,0.07C688.14,353.79,688.14,353.74,688.14,353.69z"/>
	<path class="st6" d="M1346.17,208.01c-2.01,4.36-4.34,8.51-7.59,12.1c-8.36,5.92-18.14,7.24-27.88,7.59
		c-31.09,1.13-61.49-3.08-90.96-13.31c-4.75-1.65-9.35-3.69-13.37-6.73c-7.53-5.69-7.26-12.75,0.74-17.85
		c7.81-4.98,16.84-6.31,25.71-7.07c29.79-2.57,59.61-3.12,89.31,1.22c4.41,0.64,8.76,1.89,13.02,3.24
		C1345.51,190.5,1347.26,198.55,1346.17,208.01z"/>
	<path class="st7" d="M1463.65,82.54c-14.05,1.32-27.62,6.65-42.27,2.98c-12.96-3.25-26.5-2.62-39.82-3.14
		c-6.53-2.66-13.17-5.08-19.56-8.05c-5.14-2.38-10.03-5.83-10.24-12.04c-0.23-6.68,5.04-10.16,10.22-12.93
		c13.27-7.11,27.88-9.39,42.6-10.72c21.23-1.91,42.15-1.06,61.66,9.07c5.2,2.7,9.94,6,13.55,10.68c7.03,9.11,5.04,16.85-5.49,21.45
		C1470.91,81.33,1467.42,82.53,1463.65,82.54z"/>
	<path class="st6" d="M1479.18,187c-16.46,0.29-32.97,0.27-48.56,6.84c-6.56-0.74-13.11-1.51-19.66-2.22
		c-5.69-0.62-10.77-4.35-16.78-3.29c-0.3-2.88-2.32-3.89-4.8-4.4c-4.43-5.68-2.25-9.61,3.35-12.64c8.74-4.72,18.37-6.69,28.02-7.49
		c25.96-2.14,51.96-3.64,77.96-5.26c3.57-0.22,8.3-1.09,9.93,2.89c1.76,4.29-2.47,7.03-5.17,9.73
		C1496.5,178.13,1487.43,181.95,1479.18,187z"/>
	<path class="st1" d="M1423.95,114.27c-0.08-2.09-0.16-4.17-0.24-6.26c1.18-1.7,2.96-1.91,4.82-1.96c0.6,3.35,4.55,5.54,3.31,9.53
		C1429.11,115.72,1426.35,116.08,1423.95,114.27z"/>
</g>
</svg>
